<?xml version="1.0" encoding="UTF-8" standalone="no"?>
<!-- Created with Inkscape (http://www.inkscape.org/) -->

<svg
   width="200"
   height="200"
   viewBox="0 0 52.916665 52.916667"
   version="1.1"
   id="svg345"
   sodipodi:docname="rabbitMid.svg"
   inkscape:version="1.2.2 (732a01da63, 2022-12-09)"
   xmlns:inkscape="http://www.inkscape.org/namespaces/inkscape"
   xmlns:sodipodi="http://sodipodi.sourceforge.net/DTD/sodipodi-0.dtd"
   xmlns="http://www.w3.org/2000/svg"
   xmlns:svg="http://www.w3.org/2000/svg">
  <sodipodi:namedview
     id="namedview347"
     pagecolor="#ffffff"
     bordercolor="#000000"
     borderopacity="0.25"
     inkscape:showpageshadow="2"
     inkscape:pageopacity="0.0"
     inkscape:pagecheckerboard="0"
     inkscape:deskcolor="#d1d1d1"
     inkscape:document-units="mm"
     showgrid="false"
     inkscape:zoom="1.8707912"
     inkscape:cx="107.1739"
     inkscape:cy="112.7865"
     inkscape:window-width="1366"
     inkscape:window-height="705"
     inkscape:window-x="-8"
     inkscape:window-y="-8"
     inkscape:window-maximized="1"
     inkscape:current-layer="layer1"
     inkscape:lockguides="false" />
  <defs
     id="defs342" />
  <g
     inkscape:label="Layer 1"
     inkscape:groupmode="layer"
     id="layer1">
    <path
       style="fill:#000000;stroke-width:0.0846667"
       d="m 23.882292,42.385682 c -0.727874,-0.237987 -1.41633,-0.582615 -1.856367,-0.929264 -0.182806,-0.144005 -0.345252,-0.223182 -0.360997,-0.175946 -0.559713,1.679134 -2.484258,1.210437 -3.500245,-0.852434 -0.877059,-1.780791 -0.45634,-3.484607 0.855642,-3.465147 0.416967,0.0062 0.416967,0.0062 0.417563,-0.550333 0.0021,-1.926155 1.094803,-3.866302 2.818066,-5.003389 0.744326,-0.491141 0.744326,-0.491141 0.465667,-0.54979 -2.334641,-0.491359 -3.561956,-3.176347 -1.934459,-4.232007 0.253786,-0.164617 0.259575,-0.182605 0.20783,-0.645818 -0.119618,-1.070761 0.340281,-2.349112 1.238832,-3.44352 0.506603,-0.617026 0.521174,-0.472904 -0.193423,-1.913166 -0.528648,-1.065483 -0.76676,-1.438308 -1.228318,-1.923235 l -0.371589,-0.390405 -0.844042,0.331335 c -2.36261,0.927458 -4.307826,0.889835 -4.307826,-0.08332 0,-0.611287 1.907135,-3.553088 2.772783,-4.277082 1.691391,-1.414616 3.409042,-1.586281 4.538326,-0.45357 1.013947,1.017028 1.364562,1.963573 1.918306,5.178781 0.347287,2.016468 0.299884,1.905 0.810133,1.905 0.244898,0 0.500541,0.02121 0.568097,0.04713 0.132493,0.05084 0.25867,-0.624766 0.356672,-1.9098 0.405003,-5.310457 1.859306,-7.032176 4.935511,-5.843054 1.993297,0.770519 4.915302,4.597504 3.971716,5.201803 -0.7596,0.486469 -2.495376,0.399331 -4.372457,-0.219501 -0.766209,-0.252603 -1.417936,0.623704 -2.214366,2.977419 -0.149691,0.442383 -0.30194,0.838076 -0.338328,0.879317 -0.03639,0.04124 0.120348,0.305488 0.348302,0.587214 0.825905,1.020722 1.24246,2.168569 1.163926,3.207271 -0.04031,0.533198 -0.04031,0.533198 0.358079,0.918648 1.327992,1.284857 0.409343,3.282095 -1.849453,4.020909 -0.243739,0.07972 -0.432154,0.155765 -0.418703,0.168982 0.01344,0.01322 0.338227,0.231521 0.721725,0.485118 1.705269,1.127647 2.740062,2.891909 2.842056,4.845541 0.03094,0.592667 0.03094,0.592667 0.399675,0.619485 1.941666,0.141219 1.471326,4.18916 -0.61246,5.271084 -0.760101,0.39465 -1.62872,0.07128 -1.857227,-0.69142 -0.119772,-0.399759 -0.07944,-0.39779 -0.564224,-0.02754 -1.343795,1.026316 -3.400489,1.419891 -4.884423,0.934701 z m 1.854613,-1.618977 c 0.17155,-0.116417 0.386416,-0.211667 0.47748,-0.211667 0.324279,0 0.52864,-0.317585 0.480306,-0.746411 -0.02405,-0.213373 -0.0104,-0.47562 0.03034,-0.582768 0.189915,-0.499515 -0.278537,-0.866982 -0.904356,-0.709399 -0.279374,0.07035 -0.40449,0.06208 -0.609661,-0.04027 -0.531162,-0.26498 -0.947722,0.05705 -0.947722,0.732652 0,0.247047 -0.04739,0.433462 -0.127,0.499528 -0.288155,0.239149 -0.05816,0.931334 0.309457,0.931334 0.08591,0 0.23241,0.0762 0.325543,0.169333 0.228881,0.22888 0.589238,0.213082 0.965613,-0.04233 z"
       id="path543-6"
       sodipodi:nodetypes="ssssscssssssscssssssssssssssssssssssssssssssssssss" />
  </g>
</svg>
