<?xml version="1.0" encoding="UTF-8" standalone="no"?>
<!-- Created with Inkscape (http://www.inkscape.org/) -->

<svg
   width="200"
   height="200"
   viewBox="0 0 52.916665 52.916666"
   version="1.1"
   id="svg803"
   xml:space="preserve"
   inkscape:version="1.2.2 (732a01da63, 2022-12-09)"
   sodipodi:docname="cat.svg"
   xmlns:inkscape="http://www.inkscape.org/namespaces/inkscape"
   xmlns:sodipodi="http://sodipodi.sourceforge.net/DTD/sodipodi-0.dtd"
   xmlns="http://www.w3.org/2000/svg"
   xmlns:svg="http://www.w3.org/2000/svg"><sodipodi:namedview
     id="namedview805"
     pagecolor="#ffffff"
     bordercolor="#000000"
     borderopacity="0.25"
     inkscape:showpageshadow="2"
     inkscape:pageopacity="0.0"
     inkscape:pagecheckerboard="0"
     inkscape:deskcolor="#d1d1d1"
     inkscape:document-units="mm"
     showgrid="false"
     inkscape:zoom="0.46769781"
     inkscape:cx="-28.864792"
     inkscape:cy="265.12846"
     inkscape:window-width="1366"
     inkscape:window-height="705"
     inkscape:window-x="-8"
     inkscape:window-y="-8"
     inkscape:window-maximized="1"
     inkscape:current-layer="layer1" /><defs
     id="defs800" /><g
     inkscape:label="Layer 1"
     inkscape:groupmode="layer"
     id="layer1"><path
       style="fill:#000000;stroke-width:0.0909914"
       d="m 21.700573,48.393624 c -3.593482,-0.19221 -4.549568,-0.495973 -4.549568,-1.445442 0,-0.800619 0.390949,-1.161278 1.385499,-1.278168 l 0.503955,-0.05925 -0.03328,-2.135326 c -0.05017,-3.2185 -0.176588,-3.978237 -0.95818,-5.758387 -1.846349,-4.205221 -2.216132,-5.629212 -2.209284,-8.507688 0.0047,-2.000287 0.09033,-2.57428 0.779986,-5.232002 0.944592,-3.640165 0.942771,-4.631342 -0.01039,-5.660504 l -0.445868,-0.481414 -0.487231,0.477704 c -0.528238,0.51791 -0.654666,0.567242 -0.792704,0.309314 -0.07364,-0.137596 -0.0066,-0.262099 0.366616,-0.680834 l 0.456735,-0.512445 -0.245791,-0.322249 c -0.28621,-0.375241 -0.292414,-0.374557 -1.349458,0.148557 -0.750539,0.37143 -1.055205,0.390871 -1.055205,0.06734 0,-0.141211 0.202959,-0.277186 0.90761,-0.608061 0.499184,-0.234395 0.908646,-0.449057 0.909913,-0.477026 0.0013,-0.02796 -0.04887,-0.118162 -0.111434,-0.200428 -0.103642,-0.136299 -0.178361,-0.138002 -0.84167,-0.01919 -0.931744,0.166904 -1.014843,0.165476 -1.085505,-0.01868 -0.09562,-0.249186 0.154378,-0.399328 0.86776,-0.521146 0.752337,-0.128469 0.725925,-0.08236 0.546273,-0.953729 -0.19809,-0.960804 -0.104623,-2.134538 0.267449,-3.358545 L 14.69097,10.59305 14.419166,10.11144 C 13.884648,9.1643338 13.384701,7.3039793 13.272533,5.844717 l -0.05886,-0.7657928 0.626547,0.082049 c 1.453242,0.1903065 2.781809,0.7613942 3.65761,1.5722347 l 0.546127,0.5056149 0.759164,-0.1308176 c 1.852511,-0.3192221 3.257864,-0.2808769 5.048262,0.1377472 l 0.831427,0.1944023 0.729792,-0.5940226 c 0.940153,-0.7652392 1.772367,-1.254508 2.793863,-1.6425423 1.281866,-0.4869414 1.299356,-0.4881623 1.372949,-0.09588 0.10509,0.560179 -0.027,2.2160063 -0.234742,2.9426523 -0.222861,0.7795141 -0.62949,1.6423433 -1.127773,2.3930419 l -0.346098,0.521418 0.245437,0.705561 c 0.276606,0.795161 0.400023,2.248001 0.246779,2.905065 -0.101156,0.433722 -0.121086,0.420919 0.833587,0.535476 0.629833,0.07558 0.985358,0.333047 0.76465,0.553755 -0.112711,0.112712 -0.236782,0.111411 -0.931582,-0.0098 -1.007623,-0.175718 -0.926,-0.185368 -1.033213,0.122182 -0.09061,0.259917 -0.08659,0.263823 0.514299,0.50034 0.844444,0.332384 1.197063,0.563938 1.197063,0.786069 0,0.289682 -0.213875,0.304469 -0.716897,0.04957 -0.807305,-0.409091 -1.359633,-0.600347 -1.398343,-0.48421 -0.01929,0.05786 0.266334,0.396037 0.634714,0.75151 0.470915,0.454411 0.652974,0.690126 0.613164,0.793869 -0.125414,0.326822 -0.333518,0.252326 -0.945452,-0.33844 -0.33716,-0.325509 -0.632557,-0.591832 -0.656434,-0.591832 -0.09008,0 -0.905005,1.179713 -1.077473,1.559799 -0.23325,0.514034 -0.233862,1.218536 -0.0018,2.125705 0.320485,1.253084 0.578974,1.560535 2.983216,3.548306 0.950514,0.785864 3.426286,3.333392 4.012667,4.128978 1.572781,2.133892 2.88412,5.074367 3.245862,7.278357 0.196212,1.195435 0.139567,3.587463 -0.134821,5.693551 -0.250781,1.924905 -0.252941,2.898731 -0.007,3.144697 0.53428,0.534278 1.341912,-0.135405 2.178703,-1.806574 0.851676,-1.700894 1.306861,-3.373481 1.316044,-4.835799 0.0053,-0.833982 -0.03095,-1.071049 -0.284788,-1.865323 -0.743847,-2.327621 -2.195314,-4.449685 -5.526386,-8.079632 -1.803049,-1.964819 -3.020072,-4.06489 -3.449296,-5.952036 -0.187304,-0.823514 -0.192572,-2.2725 -0.01087,-2.987343 0.834226,-3.281825 4.475011,-5.196792 7.875947,-4.142553 1.193554,0.369983 2.215215,1.246427 2.836826,2.433609 0.515932,0.985355 0.653123,1.564886 0.653123,2.758974 0,1.664658 -0.430001,2.763684 -1.457299,3.724666 -0.795908,0.744531 -1.350296,0.952169 -2.539665,0.951163 -0.788439,-6.87e-4 -0.994946,-0.03531 -1.546855,-0.25922 -1.234788,-0.501051 -2.051272,-1.183202 -2.441346,-2.039694 -0.150802,-0.331124 -0.192177,-0.60449 -0.194478,-1.285019 -0.0027,-0.762681 0.02542,-0.917964 0.237821,-1.319375 0.549431,-1.03831 1.566233,-1.703582 2.690924,-1.760623 0.629837,-0.03195 0.668237,-0.02198 0.932658,0.242463 0.461558,0.461558 0.336008,0.955958 -0.457513,1.80165 -0.537419,0.572749 -0.64067,0.965577 -0.385421,1.466388 0.239186,0.469306 0.688614,0.69011 1.147028,0.563536 0.870309,-0.240303 1.294838,-1.03604 1.228369,-2.302447 -0.08834,-1.6831 -1.162507,-2.615435 -2.864965,-2.48668 -1.213813,0.0918 -2.339685,0.788369 -2.801346,1.733174 -0.495958,1.014994 -0.37253,2.274705 0.372948,3.806375 0.621834,1.277626 1.349515,2.258003 2.989207,4.027226 3.254618,3.51173 5.026778,6.463309 5.658166,9.42387 0.22262,1.043848 0.21903,3.239456 -0.0074,4.504073 -0.614034,3.429943 -2.156835,5.707591 -4.37585,6.460083 -0.81125,0.275104 -4.881451,0.661501 -9.099137,0.863793 -1.716024,0.08231 -5.94003,0.100692 -7.233812,0.03149 z M 21.51227,15.927911 c 0.336381,-0.17395 0.750576,-0.670236 0.714727,-0.856381 -0.04522,-0.234804 -0.494748,-0.391649 -1.148001,-0.400549 -0.911581,-0.01242 -1.185385,0.209779 -0.897322,0.728181 0.147192,0.264892 0.689545,0.661967 0.904156,0.661967 0.09285,0 0.284751,-0.05995 0.42644,-0.133218 z m -2.086481,-1.874558 c 0.325295,-0.05256 0.62155,-0.12536 0.658345,-0.161755 0.122754,-0.121416 -0.574749,-1.023867 -0.999584,-1.293289 -0.230492,-0.146176 -0.431564,-0.253285 -0.446824,-0.238027 -0.01526,0.01527 0.01158,0.164875 0.05965,0.332477 0.0947,0.330194 0.04969,0.626919 -0.157353,1.037417 -0.110096,0.218279 -0.11177,0.275309 -0.01,0.339825 0.155657,0.09865 0.185762,0.09809 0.895747,-0.01665 z m 4.430995,0.04087 0.199898,-0.0536 -0.177149,-0.330523 c -0.214538,-0.400286 -0.226578,-0.838116 -0.03332,-1.211833 l 0.143824,-0.278129 -0.472686,0.257271 c -0.44788,0.243767 -0.935926,0.742147 -1.171731,1.196542 -0.12493,0.240743 -0.08446,0.266564 0.59698,0.380901 0.586409,0.09839 0.679164,0.102387 0.914188,0.03937 z m -5.9801,-0.359298 c -0.141995,-0.373474 -0.102537,-0.880249 0.09358,-1.201913 0.0999,-0.163857 0.181643,-0.317404 0.181643,-0.341219 0,-0.07754 -1.497795,-0.04277 -1.624834,0.03773 -0.273296,0.173166 0.281315,1.094749 0.891969,1.482161 0.498895,0.316512 0.570522,0.320151 0.457639,0.02324 z m 7.647455,-0.513572 c 0.135247,-0.185632 0.299039,-0.465803 0.363985,-0.622599 0.161075,-0.38887 0.04531,-0.447131 -0.891837,-0.448864 l -0.753402,-0.0014 0.198004,0.267815 c 0.212515,0.287442 0.28163,0.963202 0.13895,1.358563 l -0.07795,0.216013 0.388178,-0.216013 c 0.213499,-0.118806 0.498833,-0.367889 0.634077,-0.553522 z m 1.800608,-3.8836865 c 0.353101,-0.5202345 0.563237,-1.1059517 0.563237,-1.5699308 0,-0.3398356 -0.01018,-0.3519036 -0.250222,-0.2963696 -0.537158,0.12427 -1.28979,0.5223461 -1.612581,0.852914 l -0.338495,0.3466517 0.408121,0.3761974 c 0.22447,0.2069103 0.457675,0.4958172 0.518234,0.6420216 0.09196,0.222011 0.136227,0.2495092 0.268585,0.1668522 0.08716,-0.054434 0.286565,-0.2876868 0.443121,-0.5183365 z M 16.248219,8.3117706 16.468569,8.1627538 16.16086,7.8413919 C 15.884069,7.5523234 15.375866,7.2748614 14.807976,7.102761 14.620493,7.045941 14.60332,7.069985 14.604135,7.3880678 c 0.0011,0.4035438 0.316432,1.1276901 0.677345,1.5551594 l 0.251516,0.2978971 0.247437,-0.3901666 c 0.136089,-0.2145925 0.346594,-0.457224 0.467786,-0.5391871 z"
       id="path1490" /></g></svg>
