<?xml version="1.0" encoding="UTF-8" standalone="no"?>
<!-- Created with Inkscape (http://www.inkscape.org/) -->

<svg
   width="200"
   height="200"
   viewBox="0 0 52.916665 52.916667"
   version="1.1"
   id="svg345"
   sodipodi:docname="rabbitMid.svg"
   inkscape:version="1.2.2 (732a01da63, 2022-12-09)"
   xml:space="preserve"
   xmlns:inkscape="http://www.inkscape.org/namespaces/inkscape"
   xmlns:sodipodi="http://sodipodi.sourceforge.net/DTD/sodipodi-0.dtd"
   xmlns="http://www.w3.org/2000/svg"
   xmlns:svg="http://www.w3.org/2000/svg"><sodipodi:namedview
     id="namedview347"
     pagecolor="#ffffff"
     bordercolor="#000000"
     borderopacity="0.25"
     inkscape:showpageshadow="2"
     inkscape:pageopacity="0.0"
     inkscape:pagecheckerboard="0"
     inkscape:deskcolor="#d1d1d1"
     inkscape:document-units="mm"
     showgrid="false"
     inkscape:zoom="1.8707912"
     inkscape:cx="-10.957931"
     inkscape:cy="82.318112"
     inkscape:window-width="1366"
     inkscape:window-height="705"
     inkscape:window-x="-8"
     inkscape:window-y="-8"
     inkscape:window-maximized="1"
     inkscape:current-layer="layer1"
     inkscape:lockguides="false" /><defs
     id="defs342" /><g
     inkscape:label="Layer 1"
     inkscape:groupmode="layer"
     id="layer1"><path
       style="fill:#000000;stroke-width:0.0846667"
       d="m 24.064045,42.43977 c -0.691655,-0.181315 -1.135346,-0.389588 -1.827586,-0.857886 -0.267231,-0.180781 -0.50233,-0.328694 -0.52244,-0.328694 -0.02011,0 -0.06132,0.112703 -0.09157,0.250452 -0.06711,0.305556 -0.530347,0.728936 -0.882081,0.806191 -0.489887,0.107596 -1.140596,-0.162474 -1.684851,-0.699282 -0.461638,-0.455321 -0.861547,-1.04973 -0.995888,-1.480249 -0.03251,-0.104195 -0.09934,-0.215228 -0.148495,-0.246741 -0.05358,-0.03434 -0.0914,-0.441346 -0.09442,-1.016 -0.0043,-0.812274 0.02082,-1.002614 0.164291,-1.246187 0.268555,-0.455936 0.570159,-0.634834 1.057858,-0.627478 0.233095,0.0035 0.425777,-0.01778 0.428182,-0.04732 0.0024,-0.02954 0.01884,-0.342928 0.03652,-0.696407 0.104704,-2.093095 1.430891,-4.176954 3.25315,-5.111726 l 0.28838,-0.147931 -0.746331,-0.28074 c -0.912994,-0.343431 -1.338427,-0.63486 -1.70439,-1.167536 -0.67105,-0.976746 -0.596143,-2.20715 0.171671,-2.819789 l 0.305285,-0.243588 3e-6,-0.769711 c 1e-6,-0.42334 0.05282,-0.9452 0.117369,-1.159689 0.06455,-0.214488 0.09423,-0.413115 0.06595,-0.441393 -0.02828,-0.02828 -0.0119,-0.07792 0.03639,-0.11031 0.04829,-0.03239 0.210322,-0.275193 0.360062,-0.539555 0.149741,-0.264361 0.447186,-0.675221 0.660989,-0.91302 L 22.700826,22.112815 22.55161,21.713502 C 22.36649,21.218111 21.633964,19.8215 21.320788,19.366857 21.19248,19.180591 20.955091,18.901328 20.793257,18.746274 l -0.294245,-0.281917 -0.402206,0.183226 c -0.773774,0.352496 -2.185261,0.76605 -2.782957,0.815384 -1.147748,0.09474 -1.999846,-0.215976 -1.999846,-0.729234 0,-0.213916 1.408206,-2.659269 1.886038,-3.27511 0.743041,-0.957647 1.46315,-1.512149 2.470602,-1.902424 0.954171,-0.369634 1.586529,-0.410056 2.17809,-0.13923 0.668173,0.305899 1.257975,0.949982 1.717128,1.87516 0.212913,0.429012 0.402374,0.854581 0.421023,0.945708 0.01865,0.09113 0.116031,0.527637 0.216404,0.97002 0.100372,0.442384 0.254469,1.223434 0.342438,1.735667 0.08797,0.512233 0.206191,1.169458 0.26272,1.4605 l 0.102777,0.529167 h 0.401465 c 0.220806,0 0.456877,0.02126 0.524602,0.04725 0.103777,0.03982 0.130349,-0.183169 0.168994,-1.418167 0.03343,-1.068442 0.09585,-1.683309 0.230401,-2.269752 0.1015,-0.442383 0.197566,-0.880533 0.21348,-0.973667 0.06499,-0.380339 0.714713,-2.078361 1.047762,-2.738272 0.817851,-1.620509 1.975143,-2.892928 3.242844,-3.565443 0.419188,-0.2223787 0.76606,-0.1955217 0.908338,0.07033 0.292663,0.546846 0.320191,3.441905 0.0472,4.963388 -0.0752,0.4191 -0.140177,0.866775 -0.144398,0.994834 -0.0042,0.128058 -0.03998,0.232833 -0.07946,0.232833 -0.03948,0 -0.07178,0.07316 -0.07178,0.162587 0,0.232512 -0.481919,1.567125 -0.782034,2.165746 -0.445563,0.888734 -1.123437,1.83975 -1.867889,2.620533 l -0.722601,0.757866 0.417459,0.456767 c 0.229602,0.251222 0.517815,0.634082 0.640472,0.850801 0.122656,0.216718 0.282019,0.489283 0.354139,0.6057 0.07212,0.116416 0.137942,0.268816 0.14627,0.338666 0.0083,0.06985 0.06028,0.3175 0.115455,0.550334 0.05517,0.232833 0.09968,0.717203 0.0989,1.076379 -0.0014,0.627318 0.0084,0.660058 0.248547,0.831033 0.409745,0.291764 0.673946,0.828918 0.673946,1.370215 0,0.603797 -0.175222,1.089979 -0.591585,1.641447 -0.347443,0.460184 -0.755646,0.706575 -1.817186,1.09685 l -0.50377,0.18521 0.292104,0.148888 c 0.160657,0.08189 0.468658,0.277308 0.684447,0.434266 0.215789,0.156958 0.434864,0.285378 0.486834,0.285378 0.05197,0 0.09453,0.02857 0.09459,0.0635 5.3e-5,0.03493 0.210403,0.2921 0.467446,0.5715 0.522814,0.56829 0.57768,0.652887 1.043284,1.608667 0.386395,0.793178 0.493072,1.192204 0.572115,2.139997 l 0.05807,0.696336 h 0.313973 c 0.406951,0 0.82522,0.286321 1.051316,0.719667 0.147951,0.283567 0.17572,0.483302 0.170683,1.227666 -0.0059,0.867647 -0.01459,0.906508 -0.362868,1.617854 -0.576075,1.176604 -1.365264,1.856933 -2.146577,1.850479 -0.561969,-0.0046 -0.921648,-0.283245 -1.181578,-0.915238 l -0.112961,-0.274655 -0.338667,0.248568 c -1.463583,1.074211 -3.233646,1.451067 -4.838957,1.030239 z m 1.815349,-1.665789 c 0.126284,-0.08569 0.324858,-0.174841 0.441274,-0.198124 0.288499,-0.0577 0.517359,-0.518821 0.422191,-0.850653 -0.04339,-0.15131 -0.03399,-0.342266 0.02448,-0.497177 0.07333,-0.194261 0.06937,-0.299285 -0.01739,-0.461386 -0.140242,-0.262046 -0.406108,-0.332534 -0.865185,-0.229387 -0.269999,0.06067 -0.413042,0.05066 -0.590956,-0.04135 -0.33917,-0.175392 -0.47952,-0.152032 -0.757654,0.126103 -0.195876,0.195874 -0.248049,0.323886 -0.25018,0.613833 -0.0015,0.20149 -0.05863,0.440303 -0.127,0.530695 -0.25313,0.334667 -0.05783,0.893984 0.312148,0.893984 0.08592,0 0.236834,0.08062 0.335374,0.179163 0.214392,0.214392 0.704301,0.184389 1.072896,-0.06571 z"
       id="path300"
       sodipodi:nodetypes="sssssssscscssscssscsssssscssscssssssssssscssssssssscsssscssscsccssscssssssscsscscscssssssssssscsssss" /></g></svg>
