<?xml version="1.0" encoding="UTF-8" standalone="no"?>
<!-- Created with Inkscape (http://www.inkscape.org/) -->

<svg
   width="200"
   height="200"
   viewBox="0 0 52.916665 52.916667"
   version="1.1"
   id="svg345"
   sodipodi:docname="rabbitUp.svg"
   inkscape:version="1.2.2 (732a01da63, 2022-12-09)"
   xmlns:inkscape="http://www.inkscape.org/namespaces/inkscape"
   xmlns:sodipodi="http://sodipodi.sourceforge.net/DTD/sodipodi-0.dtd"
   xmlns="http://www.w3.org/2000/svg"
   xmlns:svg="http://www.w3.org/2000/svg">
  <sodipodi:namedview
     id="namedview347"
     pagecolor="#ffffff"
     bordercolor="#000000"
     borderopacity="0.25"
     inkscape:showpageshadow="2"
     inkscape:pageopacity="0.0"
     inkscape:pagecheckerboard="0"
     inkscape:deskcolor="#d1d1d1"
     inkscape:document-units="mm"
     showgrid="false"
     inkscape:zoom="1.8707912"
     inkscape:cx="107.1739"
     inkscape:cy="112.7865"
     inkscape:window-width="1366"
     inkscape:window-height="705"
     inkscape:window-x="-8"
     inkscape:window-y="-8"
     inkscape:window-maximized="1"
     inkscape:current-layer="layer1"
     inkscape:lockguides="false" />
  <defs
     id="defs342" />
  <g
     inkscape:label="Layer 1"
     inkscape:groupmode="layer"
     id="layer1">
    <path
       style="fill:#000000;stroke-width:0.0846667"
       d="m 24.201589,42.29351 c -0.78831,-0.20656 -1.27589,-0.42438 -1.89328,-0.84581 -0.601541,-0.41061 -0.531411,-0.4128 -0.742471,0.0232 -0.31534,0.6514 -1.10772,0.85762 -1.83094,0.47651 -2.12926,-1.12209 -2.64687,-5.07153 -0.66466,-5.07153 0.45425,0 0.45425,0 0.45489,-0.40217 0.003,-2.04893 1.16522,-4.12462 2.937391,-5.24725 0.50091,-0.31731 0.59942,-0.41163 0.47654,-0.45628 -2.679881,-0.9737 -3.668891,-2.94882 -2.102441,-4.19869 0.29653,-0.23661 0.29653,-0.23661 0.29718,-0.99861 0.001,-1.1745 0.41567,-2.27482 1.173331,-3.11346 0.29417,-0.32562 0.29417,-0.32562 -0.27082,-0.83555 -2.327641,-2.10078 -3.566851,-5.15494 -3.675101,-9.05764 -0.059,-2.12504 0.0312,-2.23693 1.28511,-1.59566 2.621531,1.34066 4.869861,5.31241 5.174741,9.14131 0.0573,0.71967 0.0573,0.71967 0.75494,0.72891 l 0.69764,0.009 0.0511,-1.15224 c 0.16942,-3.81837 1.89647,-7.48344 4.27698,-9.0764 1.156,-0.7735596 1.39451,-0.60834 1.53908,1.06616 0.33171,3.84196 -0.79094,7.41421 -3.08477,9.81568 -0.75203,0.78732 -0.71059,0.6601 -0.35166,1.07943 0.73957,0.86402 1.21334,2.25348 1.10849,3.25092 -0.0541,0.5147 -0.0541,0.5147 0.24867,0.71967 0.91823,0.6216 0.8817,2.21875 -0.0725,3.16959 -0.41791,0.41643 -0.56478,0.49219 -2.03375,1.04899 -0.13455,0.051 -0.0683,0.11469 0.381,0.36653 1.82183,1.02107 3.11913,3.14382 3.12471,5.11292 0.002,0.51839 0.002,0.51839 0.42959,0.55953 0.80133,0.077 1.20712,0.71798 1.19416,1.88628 -0.0293,2.63812 -2.69667,4.68953 -3.58366,2.75606 -0.22701,-0.49483 -0.23103,-0.49642 -0.55882,-0.22061 -1.18356,0.9959 -3.23602,1.45525 -4.7407,1.06098 z m 1.69109,-1.64998 c 0.17132,-0.11641 0.38381,-0.21166 0.4722,-0.21166 0.28937,0 0.45208,-0.28254 0.44605,-0.77456 -0.003,-0.24921 0.004,-0.58172 0.0158,-0.73891 0.0342,-0.45648 -0.30497,-0.66518 -0.88713,-0.54592 -0.36138,0.074 -0.47774,0.0675 -0.63496,-0.0355 -0.12217,-0.08 -0.27752,-0.10582 -0.42518,-0.0705 -0.12797,0.0306 -0.27818,0.0604 -0.33381,0.0663 -0.0556,0.006 -0.0965,0.0329 -0.0909,0.0601 0.006,0.0272 -0.0362,0.21172 -0.0929,0.41012 -0.0567,0.1984 -0.0948,0.40795 -0.0845,0.46567 0.0102,0.0577 -0.0499,0.2426 -0.13366,0.41087 -0.19516,0.39208 -0.0515,0.77934 0.30438,0.82067 0.12287,0.0143 0.29042,0.1 0.37233,0.1905 0.21255,0.23487 0.68797,0.21398 1.0722,-0.0471 z"
       id="path488" />
  </g>
</svg>
